<?xml version="1.0" encoding="utf-8"?>
<!-- Generator: Adobe Illustrator 15.0.2, SVG Export Plug-In . SVG Version: 6.00 Build 0)  -->
<!DOCTYPE svg PUBLIC "-//W3C//DTD SVG 1.1//EN" "http://www.w3.org/Graphics/SVG/1.1/DTD/svg11.dtd">
<svg version="1.1" id="Ebene_1" xmlns="http://www.w3.org/2000/svg" xmlns:xlink="http://www.w3.org/1999/xlink" x="0px" y="0px"
	 width="800px" height="800.003px" viewBox="0 0 800 800.003" enable-background="new 0 0 800 800.003" xml:space="preserve">
<g>
	<path fill="#005CA2" d="M0,800.003h800v-800H0V800.003z"/>
</g>
<g>
	<path fill="#FFFFFF" d="M416.647,273.848c13.926,0,26.54,2.883,37.49,8.568c7.021,3.646,23.055,15.948,24.238,18.489l17.972,20.039
		l1-20.682v-19.653h26.427v108.343h-28.58c0.408-3.311,0.613-6.65,0.613-9.994c0-13.155-3.361-25.764-9.985-37.469
		c-6.578-11.647-15.656-21.114-26.991-28.144c-11.526-7.135-24.261-10.753-37.85-10.753c-15.18,0-28.616,3.739-39.935,11.112
		c-11.207,7.299-19.811,17.071-25.57,29.04c-5.597,11.616-8.434,24.125-8.434,37.18v0.157l0.004,0.157
		c0.084,2.939,0.316,5.849,0.693,8.713h-29.415c-0.592-4.961-0.899-10.014-0.914-15.095c0.966-21.244,6.42-39.618,16.211-54.616
		c9.848-15.083,22.349-26.515,37.15-33.975C385.821,277.689,401.255,273.848,416.647,273.848 M416.647,262.848
		c-17.121,0-34.22,4.235-50.821,12.593c-16.562,8.348-30.493,21.059-41.415,37.787c-10.922,16.731-16.977,37.005-18.001,60.396
		c0.009,8.053,0.695,16.064,2.043,23.808l0.44,2.521h52.444l-1.004-3.815c-1.364-5.18-2.133-10.667-2.292-16.213
		c0-11.389,2.472-22.294,7.344-32.405c4.878-10.136,12.165-18.41,21.664-24.597c9.499-6.188,20.913-9.33,33.932-9.33
		c11.517,0,22.305,3.067,32.06,9.106c9.738,6.039,17.545,14.181,23.203,24.2c5.683,10.041,8.563,20.83,8.563,32.06
		c0,5.806-0.715,11.597-2.128,17.211l-0.948,3.783h53.043V269.609h-48.427v28.653c-5.509-11.831-14.642-19.117-27.141-25.608
		C446.677,266.149,432.361,262.848,416.647,262.848L416.647,262.848z"/>
	<path fill="#FFFFFF" d="M659.86,272.521c0.173,0,0.345,0.001,0.516,0.004l0.06,0.001l0.059,0
		c24.998,0.122,52.502,11.517,66.878,27.701c6.114,6.9,9.853,14.55,11.028,22.453h-31.823c-2.947-7.773-7.976-14.256-14.77-18.974
		c-10.848-7.543-23.865-9.126-32.876-9.126c-5.137,0-10.448,0.522-15.364,1.511c-14.248,2.873-31.798,11.52-34.368,26.443
		c-0.975,5.686-0.344,16.58,14.819,25.659c16.005,9.613,32.839,13.215,49.113,16.697l0.261,0.056
		c5.711,1.228,11.104,2.388,16.393,3.774l0.167,0.044l0.167,0.039c4.941,1.131,26.069,6.609,40.09,20.199l-54.138,0.116
		c-9.017-2.973-18.182-5.12-27.862-7.387c-9.241-2.159-18.796-4.392-28.453-7.498l-0.096-0.031l-0.097-0.029
		c-17.136-5.167-28.423-11.955-34.507-20.753c-5.956-8.614-7.59-19.89-5.14-35.484l0.033-0.215l0.025-0.216
		c1.795-15.378,16.439-25.942,25.009-30.871c14.74-8.477,33.577-13.591,51.682-14.032l0.082-0.002l0.082-0.003
		C657.776,272.561,658.869,272.521,659.86,272.521 M659.86,261.521c-1.158,0-2.342,0.042-3.462,0.085
		c-39.053,0.95-83.559,22.156-87.349,54.624c-5.697,36.273,8.476,56.758,47.338,68.476c9.999,3.216,19.822,5.519,29.318,7.738
		c9.875,2.313,19.2,4.5,28.093,7.515l0.479,0.165l76.694-0.165l-2.265-4.416c-13.235-25.86-46.377-35.227-56.133-37.461
		c-5.607-1.47-11.207-2.67-17.131-3.944c-15.401-3.295-31.326-6.702-45.762-15.373c-5.01-3-10.747-7.923-9.642-14.371
		c1.512-8.778,14.382-15.237,25.7-17.519c3.97-0.798,8.495-1.294,13.19-1.294c9.196,0,19.039,1.902,26.597,7.158
		c6.32,4.389,10.412,10.631,12.163,18.559l0.525,2.384h51.345l0.164-2.872c0.762-13.497-4.123-26.594-14.121-37.877
		c-16.563-18.648-46.729-31.268-75.057-31.406C660.32,261.523,660.09,261.521,659.86,261.521L659.86,261.521z"/>
	<path fill="#FFFFFF" d="M50.252,415.493c2.13,7.456,4.936,14.641,8.369,21.521c9.065,18.129,21.834,32.354,38.269,42.671
		c16.434,10.312,35.072,15.454,55.962,15.454c13.902,0,28.019-3.479,42.333-10.422c14.325-6.958,25.27-15.794,32.834-26.554v29.888
		h47.659v-72.558h-59.375c-5.141,8.206-11.869,14.826-20.238,19.823c-9.575,5.739-20.422,8.75-32.53,9.001
		c-10.639,0-21.073-2.49-31.323-7.456c-9.978-4.826-18.172-11.957-24.562-21.368H50.252z"/>
	<path fill="#FFFFFF" d="M312.949,415.493c2.412,7.249,5.489,14.195,9.249,20.824c10.509,18.51,24.216,32.834,41.095,42.921
		c16.878,10.096,34.389,15.128,52.582,15.128c13.705,0,26.78-3.117,39.149-9.358c12.356-6.249,22.79-15.443,31.311-27.617
		c-1.401,22.803-8.661,39.637-21.736,50.529c-13.063,10.89-28.649,16.334-46.779,16.334c-10.051,0-19.812-1.867-29.225-5.649
		c-9.423-3.782-16.326-8.598-20.749-14.435H308.84c8.455,22.814,22.671,40.454,42.626,52.92
		c19.955,12.454,41.812,18.683,65.581,18.683c15.183,0,29.782-2.489,43.811-7.487c14.033-5.001,26.652-12.522,37.857-22.587
		c11.216-10.053,20.03-22.508,26.444-37.345c6.401-14.824,9.617-31.55,9.617-50.19v-42.67h-60.255
		c-4.771,7.586-11.151,13.889-19.096,18.91c-9.642,6.088-21.118,9.141-34.444,9.141c-12.498-0.444-23.498-3.608-32.976-9.508
		c-7.912-4.913-14.28-11.109-19.127-18.543H312.949z"/>
	<path fill="#FFFFFF" d="M560.383,415.493c-4.336,40.149,26.128,70.755,71.308,77.188c14.411,1.348,14.727,1.469,32.79,1.174
		c60.486-1,91.341-36.453,89.145-78.362h-53.2c7.346,12.836-7.38,28.161-24.979,31.909c-29.008,7.293-62.819-1.9-65.84-31.909
		H560.383z"/>
</g>
<path fill="#FFFFFF" d="M156.605,273.356c14.108,0,26.889,2.883,37.982,8.568c7.114,3.646,23.357,15.948,24.557,18.489
	l18.208,20.039l1.014-20.683v-19.653h26.773V388.46h-28.955c0.413-3.311,0.621-6.65,0.621-9.994
	c0-13.154-3.405-25.764-10.117-37.469c-6.664-11.646-15.861-21.114-27.346-28.144c-11.678-7.136-24.579-10.753-38.347-10.753
	c-15.379,0-28.992,3.738-40.459,11.112c-11.354,7.3-20.07,17.071-25.906,29.04c-5.67,11.615-8.544,24.124-8.544,37.18v0.156
	l0.004,0.158c0.085,2.938,0.32,5.848,0.702,8.713H56.991c-0.6-4.961-0.911-10.014-0.926-15.096
	c0.979-21.244,6.504-39.617,16.424-54.615c9.978-15.084,22.643-26.516,37.639-33.976
	C125.374,277.197,141.012,273.356,156.605,273.356 M156.605,262.356c-17.346,0-34.669,4.235-51.489,12.593
	c-16.78,8.348-30.894,21.059-41.958,37.787c-11.066,16.73-17.199,37.005-18.238,60.396c0.009,8.053,0.704,16.063,2.07,23.807
	l0.446,2.521h53.134l-1.018-3.814c-1.381-5.181-2.16-10.667-2.321-16.213c0-11.39,2.504-22.295,7.439-32.406
	c4.942-10.135,12.325-18.409,21.949-24.596c9.624-6.188,21.188-9.33,34.377-9.33c11.668,0,22.598,3.067,32.481,9.105
	c9.866,6.039,17.775,14.182,23.508,24.2c5.757,10.041,8.676,20.829,8.676,32.06c0,5.807-0.725,11.597-2.156,17.211l-0.961,3.783
	h53.74V269.117h-49.062v28.653c-5.582-11.831-14.834-19.117-27.498-25.608C187.03,265.657,172.525,262.356,156.605,262.356
	L156.605,262.356z"/>
</svg>
